<svg width="15" height="14" viewBox="0 0 15 14" fill="none" xmlns="http://www.w3.org/2000/svg">
<mask id="mask0_16_373" style="mask-type:luminance" maskUnits="userSpaceOnUse" x="8" y="0" width="7" height="7">
<path fill-rule="evenodd" clip-rule="evenodd" d="M8.56927 0.333008H14.2619V6.02155H8.56927V0.333008Z" fill="white"/>
</mask>
<g mask="url(#mask0_16_373)">
<path fill-rule="evenodd" clip-rule="evenodd" d="M13.7617 6.02155C13.5104 6.02155 13.2944 5.83288 13.2657 5.57755C13.0131 3.32688 11.2651 1.58022 9.01374 1.33022C8.73974 1.29955 8.54174 1.05288 8.57241 0.778217C8.60241 0.504217 8.84707 0.302217 9.12441 0.336884C11.8431 0.638884 13.9544 2.74755 14.2591 5.46555C14.2897 5.74022 14.0924 5.98755 13.8184 6.01822C13.7997 6.02022 13.7804 6.02155 13.7617 6.02155Z" fill="#292929"/>
</g>
<path fill-rule="evenodd" clip-rule="evenodd" d="M11.4017 6.02878C11.167 6.02878 10.9583 5.86345 10.9117 5.62478C10.7197 4.63812 9.95898 3.87745 8.97365 3.68612C8.70232 3.63345 8.52565 3.37145 8.57832 3.10012C8.63098 2.82878 8.89765 2.65145 9.16432 2.70478C10.5517 2.97412 11.623 4.04478 11.893 5.43278C11.9457 5.70478 11.769 5.96678 11.4983 6.01945C11.4657 6.02545 11.4337 6.02878 11.4017 6.02878Z" fill="#292929"/>
<mask id="mask1_16_373" style="mask-type:luminance" maskUnits="userSpaceOnUse" x="0" y="0" width="15" height="14">
<path fill-rule="evenodd" clip-rule="evenodd" d="M0.333557 0.333008H14.0004V14H0.333557V0.333008Z" fill="white"/>
</mask>
<g mask="url(#mask1_16_373)">
<path fill-rule="evenodd" clip-rule="evenodd" d="M1.90629 2.37404C1.90762 2.37404 1.87429 2.40871 1.83229 2.45004C1.67096 2.60671 1.33696 2.93271 1.33362 3.61471C1.32829 4.56871 1.95562 6.34004 4.97629 9.36004C7.98229 12.3654 9.75096 13 10.7076 13H10.7216C11.4036 12.996 11.729 12.662 11.8856 12.5014C11.933 12.4527 11.9716 12.416 11.999 12.394C12.6636 11.7254 13.0036 11.2287 13.0003 10.9094C12.9963 10.584 12.5916 10.2 12.0323 9.66737C11.8543 9.49871 11.661 9.31404 11.457 9.11004C10.9276 8.58271 10.667 8.67271 10.0903 8.87537C9.29362 9.15471 8.20229 9.53737 6.50163 7.83537C4.80029 6.13471 5.18162 5.04337 5.45962 4.24604C5.66096 3.67004 5.75296 3.40804 5.22429 2.87871C5.01762 2.67204 4.83162 2.47604 4.66029 2.29604C4.13096 1.74004 3.74896 1.33804 3.42562 1.33337H3.42029C3.10096 1.33337 2.60496 1.67471 1.90296 2.37671C1.90496 2.37471 1.90562 2.37404 1.90629 2.37404ZM10.7076 14C9.04628 14 6.88028 12.6774 4.26961 10.0674C1.64828 7.4467 0.323613 5.27403 0.333613 3.60937C0.339613 2.50937 0.91628 1.94603 1.13295 1.7347C1.14428 1.7207 1.18295 1.6827 1.19628 1.66937C2.15295 0.712701 2.81028 0.319368 3.43828 0.333368C4.18295 0.343368 4.71361 0.901368 5.38495 1.60737C5.55095 1.78137 5.73028 1.97137 5.93095 2.17137C6.90361 3.1447 6.62695 3.9387 6.40361 4.57603C6.16095 5.27137 5.95095 5.87137 7.20828 7.1287C8.46561 8.38603 9.06495 8.17603 9.75961 7.93137C10.3976 7.7087 11.1896 7.43003 12.1643 8.40337C12.3623 8.60137 12.5489 8.7787 12.7223 8.94337C13.4309 9.61803 13.9909 10.1507 14.0003 10.8974C14.0076 11.5334 13.6209 12.1827 12.6663 13.1374L12.2436 12.8507L12.6016 13.1994C12.3903 13.416 11.8283 13.9934 10.7276 14H10.7076Z" fill="#292929"/>
</g>
</svg>
