<svg width="185" height="29" viewBox="0 0 185 29" fill="none" xmlns="http://www.w3.org/2000/svg">
<g clip-path="url(#clip0_0_1513)">
<path d="M36.2906 16.8216C36.2906 12.0866 39.9571 8.76074 44.9529 8.76074C47.998 8.76074 50.3973 9.86336 51.9312 11.8448L48.6194 14.7726C47.7085 13.6294 46.6202 12.9669 45.2197 12.9669C43.0431 12.9669 41.5759 14.4661 41.5759 16.8216C41.5759 19.177 43.0431 20.6762 45.2197 20.6762C46.6202 20.6762 47.7085 20.0152 48.6194 18.8691L51.9312 21.7983C50.4034 23.7813 47.998 24.8824 44.9529 24.8824C39.9571 24.8764 36.2906 21.5505 36.2906 16.8216Z" fill="#292929"/>
<path d="M62.0016 12.2568V16.6613C61.6348 16.6027 61.2635 16.5727 60.8906 16.5727C59.3794 16.5727 58.3124 17.2562 58.3124 19.1715V24.5223H53.2908V12.4777H58.0668V13.7786C58.9566 12.7631 60.3116 12.2568 62.0016 12.2568Z" fill="#292929"/>
<path d="M76.1781 19.6567H67.7341C68.0887 20.582 68.9345 21.0672 70.1789 21.0672C71.2899 21.0672 71.9129 20.7803 72.7132 20.184L75.3353 22.8053C74.1576 24.0822 72.4479 24.7431 70.0243 24.7431C65.559 24.7431 62.6701 22.0782 62.6701 18.4895C62.6701 14.8286 65.6257 12.2568 69.559 12.2568C73.1588 12.2568 76.2463 14.414 76.2463 18.4895C76.2448 18.8425 76.2008 19.3037 76.1781 19.6567ZM67.6446 17.2577H71.5552C71.3551 16.2482 70.6215 15.6488 69.5999 15.6488C68.5586 15.6473 67.8477 16.2422 67.6477 17.2562L67.6446 17.2577Z" fill="#292929"/>
<path d="M89.5117 18.0489V24.5219H84.8464V22.9385C84.2674 24.1493 83.1124 24.7442 81.4072 24.7442C78.4289 24.7442 76.8965 23.0707 76.8965 20.9992C76.8965 18.6648 78.6729 17.3654 82.4516 17.3654H84.4735C84.3174 16.44 83.6081 15.9563 82.1803 15.9563C81.0905 15.9563 79.8703 16.3078 79.07 16.9027L77.4694 13.6204C78.8912 12.7371 81.048 12.2549 82.9351 12.2549C87.1124 12.2564 89.5117 14.044 89.5117 18.0489ZM84.4917 20.6086V19.7719H83.2473C82.1802 19.7719 81.7195 20.1234 81.7195 20.7814C81.7195 21.3312 82.1636 21.7503 82.9199 21.7503C83.602 21.7458 84.2234 21.3958 84.4917 20.6086Z" fill="#292929"/>
<path d="M100.646 24.1041C99.8686 24.5442 98.7348 24.7425 97.5571 24.7425C94.2014 24.7425 92.2461 23.1787 92.2461 19.8528V16.7703H90.5803V13.138H92.2461V9.76855H97.2692V13.138H99.7579V16.7718H97.2692V19.8108C97.2692 20.5589 97.7133 20.978 98.3135 20.978C98.7151 20.981 99.1092 20.8653 99.4457 20.6475L100.646 24.1041Z" fill="#292929"/>
<path d="M101.402 8.97607C101.402 7.54447 102.58 6.44336 104.423 6.44336C106.266 6.44336 107.446 7.45284 107.446 8.88744C107.446 10.4017 106.268 11.5088 104.423 11.5088C102.579 11.5088 101.402 10.4077 101.402 8.97607ZM101.912 12.4777H106.935V24.5239H101.913L101.912 12.4777Z" fill="#292929"/>
<path d="M122.689 12.4771L117.801 24.5232H112.599L107.711 12.4756H112.866L115.312 18.9305L117.934 12.4771H122.689Z" fill="#292929"/>
<path d="M136 19.6567H127.556C127.912 20.582 128.756 21.0672 130.001 21.0672C131.112 21.0672 131.735 20.7803 132.535 20.184L135.157 22.8053C133.98 24.0822 132.27 24.7431 129.846 24.7431C125.381 24.7431 122.492 22.0782 122.492 18.4895C122.492 14.8286 125.448 12.2568 129.381 12.2568C132.981 12.2568 136.07 14.414 136.07 18.4895C136.068 18.8425 136.023 19.3037 136 19.6567ZM127.465 17.2577H131.376C131.176 16.2482 130.442 15.6488 129.42 15.6488C128.379 15.6473 127.668 16.2422 127.468 17.2562L127.465 17.2577Z" fill="#292929"/>
<path d="M153.134 9.10742V24.523H147.889V18.8417H143.042V24.523H137.801V9.10742H143.042V14.5694H147.882V9.10742H153.134Z" fill="#292929"/>
<path d="M168.8 12.4775V24.5237H164.023V23.3775C163.112 24.3029 161.89 24.743 160.583 24.743C157.672 24.743 155.472 23.047 155.472 19.1278V12.4775H160.496V18.27C160.496 19.9885 161.096 20.5594 162.072 20.5594C162.939 20.5594 163.783 19.9224 163.783 18.1378V12.4775H168.8Z" fill="#292929"/>
<path d="M185 18.4892C185 22.3649 182.313 24.7429 179.134 24.7429C177.623 24.7429 176.535 24.3463 175.801 23.5306V24.5221H171.025V8.18262H176.047V13.2871C176.78 12.5826 177.802 12.2521 179.136 12.2521C182.313 12.2566 185 14.6135 185 18.4892ZM179.913 18.4892C179.913 16.9254 179.046 16.1323 177.935 16.1323C176.824 16.1323 175.957 16.9254 175.957 18.4892C175.957 20.053 176.824 20.8672 177.935 20.8672C179.046 20.8672 179.912 20.053 179.913 18.4892Z" fill="#292929"/>
<path d="M14.6311 0C6.5509 0 0 6.49251 0 14.5007C0 22.509 6.5509 29.0015 14.6311 29.0015C22.7114 29.0015 29.2623 22.512 29.2623 14.5007C29.2623 6.48951 22.7099 0 14.6311 0ZM20.5894 14.5203C20.1286 14.8508 19.6027 15.0806 19.0464 15.1948L18.9555 15.2128V19.1305H16.0665V15.01L15.6179 14.9048C15.0753 14.7802 14.5144 14.6525 14.0158 14.6224C13.9051 14.6179 13.7945 14.6194 13.6838 14.6284L13.5777 14.6375V22.2236H10.6933V15.5883L9.8021 16.2163L8.13482 13.8788L9.06243 13.2224C9.52321 12.8919 10.0492 12.6621 10.6054 12.5479L10.6964 12.5299V7.58762H13.5853V11.7697L13.7035 11.7652C13.7702 11.7622 13.8384 11.7622 13.9051 11.7622C14.0036 11.7607 14.1022 11.7652 14.2007 11.7758H14.2098C14.7903 11.8103 15.3678 11.8974 15.9331 12.0356L16.0696 12.0687V7.55908H18.9585V12.1543L19.8497 11.5264L21.5201 13.8623L20.5894 14.5203Z" fill="#292929"/>
</g>
<defs>
<clipPath id="clip0_0_1513">
<rect width="185" height="29" fill="white"/>
</clipPath>
</defs>
</svg>
