<svg width="188" height="41" viewBox="0 0 188 41" fill="none" xmlns="http://www.w3.org/2000/svg">
<path d="M36.954 17.0776C36.954 12.3158 40.6422 8.9663 45.6849 8.9663C48.7337 8.9663 51.1336 10.0586 52.6782 12.0163L49.4196 14.894C48.4935 13.757 47.3821 13.0927 45.956 13.0927C44.8331 13.0927 43.8877 13.4795 43.2233 14.1748C42.5591 14.8698 42.1814 15.867 42.1814 17.0776C42.1814 18.2882 42.5591 19.2854 43.2233 19.9805C43.8877 20.6758 44.8331 21.0625 45.956 21.0625C47.382 21.0625 48.4935 20.3998 49.4197 19.2598L52.6783 22.139C51.1397 24.098 48.7339 25.1889 45.685 25.1889C40.6422 25.1829 36.954 21.8333 36.954 17.0776Z" fill="white" stroke="white" stroke-width="0.143541"/>
<path d="M59.0623 14.0355C59.9365 13.0388 61.2654 12.5296 62.9351 12.5154V16.831C62.5857 16.7793 62.2325 16.7529 61.8779 16.7529C61.1007 16.7529 60.4253 16.9283 59.944 17.3613C59.4612 17.7955 59.1861 18.4775 59.1861 19.4629V24.8231H54.2267V12.7393H58.9366V13.9882V14.1789L59.0623 14.0355Z" fill="white" stroke="white" stroke-width="0.143541"/>
<path d="M70.7291 15.814C70.186 15.8133 69.7239 15.968 69.3707 16.2598C69.0177 16.5514 68.779 16.9755 68.6747 17.5036L68.7239 17.5134L68.742 17.5908H72.7159H72.8033L72.7863 17.5051C72.6818 16.9786 72.4371 16.5548 72.081 16.2627C71.725 15.9706 71.2624 15.8141 70.7291 15.814ZM70.7291 15.814L70.7289 15.8858V15.814C70.729 15.814 70.729 15.814 70.7291 15.814ZM72.7159 17.5191L72.6455 17.533C72.6446 17.5284 72.6436 17.5237 72.6427 17.5191H72.7159ZM72.7159 17.5191V17.4473H72.7006C72.706 17.471 72.7111 17.4949 72.7159 17.5191ZM72.7483 21.2324C73.1418 21.0867 73.4963 20.8704 73.8857 20.5842L76.4575 23.1526C75.2797 24.397 73.5772 25.0463 71.1602 25.0463C68.9055 25.0463 67.0548 24.3743 65.769 23.2559C64.4838 22.138 63.7586 20.5707 63.7586 18.7696C63.7586 15.1002 66.7222 12.5142 70.6874 12.5142C72.5027 12.5142 74.184 13.0575 75.4103 14.109C76.6352 15.1592 77.4113 16.7206 77.4113 18.7695C77.4102 19.0259 77.3868 19.3383 77.3651 19.6283C77.3586 19.7159 77.3522 19.8014 77.3466 19.8827H68.8329H68.7285L68.7659 19.9802C68.9518 20.4648 69.2676 20.8359 69.7002 21.0849C70.1319 21.3334 70.6761 21.4582 71.3173 21.4582C71.8884 21.4582 72.3376 21.3845 72.7483 21.2324Z" fill="white" stroke="white" stroke-width="0.143541"/>
<path d="M90.8907 24.8227V18.3233C90.8907 16.3053 90.2862 14.858 89.1664 13.9132C88.0444 12.9664 86.3931 12.5139 84.2792 12.5132L90.8907 24.8227ZM90.8907 24.8227H86.2933V23.2871L86.1568 23.2561C85.584 24.4526 84.4415 25.0484 82.7266 25.0484C81.2265 25.0484 80.0991 24.6276 79.3476 23.9544C78.5965 23.2817 78.2145 22.3514 78.2145 21.3184C78.2145 20.1546 78.6561 19.256 79.5654 18.6448C80.4795 18.0303 81.874 17.7012 83.7878 17.7012H85.8426H85.9275L85.9133 17.6175C85.8311 17.1302 85.601 16.7536 85.2002 16.5012C84.8026 16.2508 84.2442 16.1272 83.5121 16.1272C82.4233 16.1272 81.2061 16.4677 80.3785 17.0515L78.8181 13.8547C80.2487 12.9885 82.395 12.5132 84.2792 12.5132L90.8907 24.8227ZM85.929 20.945L85.9328 20.9338V20.9219V20.0724V20.0007H85.8611H84.5965C84.0489 20.0007 83.6433 20.0903 83.3731 20.2751C83.0975 20.4635 82.9721 20.7441 82.9721 21.0972C82.9721 21.3969 83.0939 21.6631 83.3194 21.8532C83.544 22.0426 83.8666 22.1526 84.2638 22.1526L84.2643 22.1526C84.9846 22.1479 85.6455 21.776 85.929 20.945Z" fill="white" stroke="white" stroke-width="0.143541"/>
<path d="M99.9101 21.3692C100.302 21.3721 100.687 21.2677 101.023 21.07L102.193 24.4374C101.42 24.8554 100.306 25.0473 99.1418 25.0473C97.4466 25.0473 96.1171 24.6526 95.212 23.8496C94.3085 23.0479 93.8164 21.8291 93.8164 20.1552V17.0259V16.9542H93.7446H92.1237V13.4103H93.7446H93.8164V13.3385V9.98974H98.7774V13.3385V13.4103H98.8491H101.306V16.9557H98.8491H98.7774V17.0275V20.1125C98.7774 20.5065 98.8946 20.8216 99.0987 21.0389C99.303 21.2564 99.588 21.3691 99.9101 21.3692ZM99.9101 21.3692C99.91 21.3692 99.9099 21.3692 99.9098 21.3692L99.9104 21.2974V21.3692C99.9103 21.3692 99.9102 21.3692 99.9101 21.3692Z" fill="white" stroke="white" stroke-width="0.143541"/>
<path d="M103.115 9.11215C103.115 8.40635 103.405 7.78338 103.923 7.33588C104.441 6.88791 105.191 6.61279 106.113 6.61279C107.037 6.61279 107.788 6.86551 108.306 7.29092C108.823 7.71542 109.113 8.31529 109.113 9.02217C109.113 9.7711 108.822 10.4165 108.304 10.8755C107.786 11.3349 107.036 11.6115 106.113 11.6115C105.19 11.6115 104.44 11.3364 103.922 10.8884C103.405 10.4409 103.115 9.81797 103.115 9.11215ZM103.633 12.7387H108.594V24.824H103.634L103.633 12.7387Z" fill="white" stroke="white" stroke-width="0.143541"/>
<path d="M117.249 19.245L119.896 12.7383H124.573L119.664 24.8237H114.474L109.565 12.7368H114.647L117.116 19.2434L117.18 19.4141L117.249 19.245Z" fill="white" stroke="white" stroke-width="0.143541"/>
<path d="M131.52 15.815C130.977 15.8142 130.515 15.969 130.161 16.2607C129.808 16.5524 129.57 16.9765 129.465 17.5046L129.514 17.5143L129.533 17.5918H133.507H133.594L133.577 17.5061C133.473 16.9796 133.228 16.5557 132.872 16.2636C132.516 15.9716 132.053 15.815 131.52 15.815ZM131.52 15.815L131.52 15.8868V15.815C131.52 15.815 131.52 15.815 131.52 15.815ZM133.507 17.52L133.436 17.534C133.435 17.5293 133.434 17.5247 133.433 17.52H133.507ZM133.507 17.52V17.4483H133.491C133.497 17.472 133.502 17.4959 133.507 17.52ZM133.541 21.2334C133.934 21.0877 134.288 20.8714 134.678 20.5852L137.25 23.1535C136.072 24.398 134.369 25.0473 131.952 25.0473C129.698 25.0473 127.847 24.3753 126.561 23.2568C125.276 22.139 124.551 20.5717 124.551 18.7705C124.551 15.1012 127.514 12.5151 131.48 12.5151C133.295 12.5151 134.977 13.0585 136.203 14.11C137.429 15.1602 138.205 16.7216 138.205 18.7705C138.204 19.0226 138.181 19.3286 138.159 19.6145C138.152 19.7072 138.145 19.7977 138.139 19.8837H129.625H129.52L129.558 19.9813C129.745 20.4658 130.061 20.8369 130.493 21.0859C130.924 21.3343 131.468 21.4592 132.11 21.4592C132.681 21.4592 133.13 21.3855 133.541 21.2334Z" fill="white" stroke="white" stroke-width="0.143541"/>
<path d="M150.35 14.791V9.31786H155.543V24.8238H150.357V19.128V19.0563H150.286H145.36H145.288V19.128V24.8238H140.105V9.31786H145.288V14.791V14.8627H145.36H150.278H150.35V14.791Z" fill="white" stroke="white" stroke-width="0.143541"/>
<path d="M158.064 19.4171V12.7378H163.025V18.5464C163.025 19.4244 163.178 20.0246 163.469 20.4061C163.763 20.7922 164.188 20.9422 164.699 20.9422C165.158 20.9422 165.614 20.7733 165.954 20.3667C166.293 19.9616 166.51 19.3285 166.51 18.4122V12.7378H171.465V24.8231H166.753V23.7313V23.5562L166.63 23.681C165.72 24.6047 164.498 25.0458 163.186 25.0458C161.721 25.0458 160.442 24.6195 159.531 23.7086C158.619 22.7978 158.064 21.3932 158.064 19.4171Z" fill="white" stroke="white" stroke-width="0.143541"/>
<path d="M178.705 23.8394L178.58 23.7005V23.8874V24.8222H173.87V8.37841H178.83V13.4886V13.6569L178.951 13.5403C179.679 12.842 180.697 12.5096 182.041 12.5096C185.229 12.5141 187.928 14.8745 187.928 18.7696C187.928 22.665 185.229 25.0463 182.039 25.0463C180.516 25.0463 179.433 24.6473 178.705 23.8394ZM182.903 18.7697V18.7696C182.903 17.9628 182.679 17.3459 182.302 16.9298C181.926 16.5132 181.403 16.3051 180.821 16.3051C180.239 16.3051 179.716 16.5132 179.339 16.9298C178.963 17.3459 178.739 17.9628 178.739 18.7696C178.739 19.5764 178.963 20.1984 179.339 20.6197C179.715 21.0416 180.238 21.2554 180.821 21.2554C181.404 21.2554 181.926 21.0416 182.302 20.6197C182.678 20.1984 182.902 19.5764 182.903 18.7697Z" fill="white" stroke="white" stroke-width="0.143541"/>
<path d="M19.3376 12.2004V7.67374V7.60197H19.2658H16.33H16.2582V7.67374V12.1605L16.2084 12.1485C15.6297 12.0072 15.0386 11.9181 14.4444 11.8827L14.4444 11.8826H14.4401H14.4346C14.3331 11.8719 14.2316 11.8674 14.13 11.8689H14.1305L19.3376 12.2004ZM19.3376 12.2004L20.1302 11.6425L20.1884 11.6016L20.2298 11.6595L21.9272 14.0308L21.9693 14.0896L21.9103 14.1312L20.9649 14.7989C20.9649 14.7989 20.9648 14.799 20.9647 14.799C20.4883 15.1403 19.9446 15.3777 19.3695 15.4956L19.3691 15.4957L19.3345 15.5025V19.4207V19.4925H19.2627H16.3269H16.2552V19.4207V15.2946L15.855 15.2009C15.8549 15.2009 15.8549 15.2009 15.8548 15.2009C15.3023 15.074 14.7388 14.9461 14.2393 14.9159C14.1297 14.9115 14.0205 14.913 13.9115 14.9219C13.9115 14.9219 13.9114 14.9219 13.9114 14.9219L13.8696 14.9254V22.5607V22.6325H13.7978H10.8667H10.7949V22.5607V15.9631L10.0023 16.5209L9.94398 16.562L9.90256 16.504L8.20826 14.1311L8.16636 14.0724L8.22523 14.0308L9.16751 13.3646C9.16757 13.3646 9.16763 13.3645 9.16769 13.3645C9.6441 13.0232 10.1878 12.7858 10.7629 12.6679L10.7634 12.6678L10.798 12.661V7.70272V7.63095H10.8697H13.8055H13.8773V7.70272V11.8737L13.9224 11.872L19.3376 12.2004ZM0.0717705 14.7207C0.0717705 6.63131 6.69604 0.0717705 14.8683 0.0717705C23.039 0.0717705 29.6648 6.62828 29.6648 14.7207C29.6648 22.8132 23.0406 29.3697 14.8683 29.3697C6.69604 29.3697 0.0717705 22.8101 0.0717705 14.7207Z" fill="white" stroke="white" stroke-width="0.143541"/>
<path d="M1.06064 39.6689L187.997 39.669" stroke="white"/>
</svg>
