<svg width="88" height="24" viewBox="0 0 88 24" fill="none" xmlns="http://www.w3.org/2000/svg">
<g clip-path="url(#clip0_0_1977)">
<path d="M0.988281 0.0546875H18.6306V17.5291H0.988281V0.0546875Z" fill="#EC008B"/>
<path d="M10.1874 2.89453H12.5733C12.8548 2.89453 13.0482 3.07275 13.0027 3.28866L12.6178 5.1232C12.5708 5.33911 12.3045 5.51635 12.023 5.51635H9.63517C9.35365 5.51635 9.16271 5.33911 9.20775 5.1232L9.59209 3.28866C9.63762 3.07275 9.90592 2.89453 10.1874 2.89453Z" fill="white"/>
<path d="M5.52348 5.95312H7.91127C8.19279 5.95312 8.38619 6.12987 8.34065 6.34628L7.95436 8.18081C7.90931 8.3982 7.64297 8.57543 7.36145 8.57543H4.97366C4.69214 8.57543 4.49875 8.39869 4.54624 8.18081L4.93058 6.34628C4.97611 6.12987 5.24245 5.95312 5.52348 5.95312Z" fill="white"/>
<path d="M9.54444 5.95312H11.9303C12.2118 5.95312 12.4052 6.12987 12.3597 6.34628L11.9753 8.18081C11.9283 8.3982 11.6615 8.57543 11.3804 8.57543H8.99462C8.7131 8.57543 8.51971 8.39869 8.56524 8.18081L8.95202 6.34628C8.99462 6.12987 9.26292 5.95312 9.54444 5.95312Z" fill="white"/>
<path d="M8.90382 9.00977H11.2896C11.5712 9.00977 11.7646 9.18651 11.719 9.4039L11.3347 11.2394C11.2896 11.4543 11.0209 11.6316 10.7398 11.6316H8.35399C8.07247 11.6316 7.87908 11.4543 7.92461 11.2394L8.3114 9.4039C8.35399 9.18651 8.62279 9.00977 8.90382 9.00977Z" fill="white"/>
<path d="M12.2554 12.0684H14.6437C14.9252 12.0684 15.1186 12.2451 15.0711 12.4625L14.6867 14.2975C14.6417 14.5129 14.3754 14.6897 14.0938 14.6897H11.7056C11.424 14.6897 11.2306 14.5129 11.2762 14.2975L11.6605 12.4625C11.7075 12.2456 11.9739 12.0684 12.2554 12.0684Z" fill="white"/>
<path d="M8.25929 12.0684H10.6451C10.9286 12.0684 11.12 12.2451 11.0745 12.4625L10.6902 14.2975C10.6451 14.5129 10.3763 14.6897 10.0953 14.6897H7.70946C7.42794 14.6897 7.23455 14.5129 7.28008 14.2975L7.66687 12.4625C7.71142 12.2456 7.97776 12.0684 8.25929 12.0684Z" fill="white"/>
<path d="M23.3315 12.1026V7.90627H22.4473V6.69108H23.3315V4.60831H24.8708V6.69108H25.9602V7.90627H24.8708V12.1859C24.8708 12.6525 24.9158 12.955 25.0064 13.0946C25.0945 13.2326 25.2586 13.3032 25.4994 13.3032C25.5876 13.3032 25.7276 13.2958 25.9107 13.2816C25.945 13.2762 25.9729 13.2733 25.9944 13.2733V14.4459C25.8524 14.489 25.7149 14.5208 25.5729 14.5423C25.4329 14.5634 25.2933 14.5732 25.1464 14.5732C24.4556 14.5732 23.9822 14.4043 23.7212 14.0655C23.4632 13.7276 23.3315 13.0725 23.3315 12.1026ZM28.5193 8.86148V9.62967H30.0841V8.86148C30.0841 8.49281 30.0239 8.225 29.899 8.05756C29.7742 7.8906 29.5764 7.80737 29.3051 7.80737C29.0314 7.80737 28.8336 7.8906 28.7063 8.05756C28.582 8.22451 28.5193 8.49281 28.5193 8.86148ZM31.5607 11.756V12.2084C31.5607 12.9658 31.3561 13.5543 30.9497 13.9744C30.5384 14.394 29.9641 14.6021 29.2234 14.6021C28.4743 14.6021 27.9146 14.3734 27.5401 13.9176C27.17 13.4593 26.9844 12.7685 26.9844 11.8402V9.33982C26.9844 8.39881 27.1719 7.70064 27.5528 7.25167C27.9318 6.80222 28.5218 6.57798 29.3198 6.57798C30.0993 6.57798 30.6848 6.83306 31.0696 7.34568C31.4574 7.86074 31.6508 8.63725 31.6508 9.67324V10.8444H28.5188V12.3078C28.5188 12.674 28.5815 12.9443 28.7063 13.1161C28.8331 13.287 29.0314 13.3722 29.3051 13.3722C29.5764 13.3722 29.7742 13.287 29.899 13.1161C30.0239 12.9443 30.0841 12.674 30.0841 12.3078V11.7555H31.5607V11.756ZM33.031 3.99925H34.5463V14.4586H33.031V3.99925ZM37.6656 8.86148V9.62967H39.2303V8.86148C39.2303 8.49281 39.1677 8.225 39.0428 8.05756C38.918 7.8906 38.7197 7.80737 38.4484 7.80737C38.1752 7.80737 37.975 7.8906 37.8501 8.05756C37.7258 8.22451 37.6656 8.49281 37.6656 8.86148ZM40.707 11.756V12.2084C40.707 12.9658 40.5004 13.5543 40.0915 13.9744C39.6827 14.394 39.1079 14.6021 38.3672 14.6021C37.6181 14.6021 37.0585 14.3734 36.6839 13.9176C36.3138 13.4593 36.1267 12.7685 36.1267 11.8402V9.33982C36.1267 8.39881 36.3162 7.70064 36.6991 7.25167C37.0761 6.80222 37.6675 6.57798 38.4641 6.57798C39.2455 6.57798 39.8286 6.83306 40.2139 7.34568C40.5997 7.86074 40.7956 8.63725 40.7956 9.67324V10.8444H37.666V12.3078C37.666 12.674 37.7263 12.9443 37.8511 13.1161C37.976 13.287 38.1762 13.3722 38.4494 13.3722C38.7206 13.3722 38.9189 13.287 39.0438 13.1161C39.1686 12.9443 39.2313 12.674 39.2313 12.3078V11.7555H40.707V11.756ZM44.0456 11.2615C44.3016 11.2615 44.4784 11.146 44.5753 10.9154C44.6742 10.6862 44.7217 10.2118 44.7217 9.50237C44.7217 8.78608 44.6747 8.31166 44.5753 8.08302C44.4784 7.85143 44.3016 7.73589 44.0456 7.73589C43.7939 7.73589 43.6172 7.85143 43.5158 8.08302C43.4169 8.31166 43.3675 8.78608 43.3675 9.50237C43.3675 10.2118 43.4164 10.6862 43.5158 10.9154C43.6172 11.146 43.7939 11.2615 44.0456 11.2615ZM43.9511 14.5041C43.6798 14.5737 43.4688 14.6784 43.3161 14.817C43.1589 14.9565 43.0815 15.1127 43.0815 15.287C43.0815 15.5186 43.1892 15.6929 43.4003 15.8138C43.6113 15.9333 43.9256 15.994 44.332 15.994C44.7129 15.994 45.0252 15.9211 45.2622 15.78C45.5031 15.6351 45.6216 15.4569 45.6216 15.243C45.6216 15.0212 45.4923 14.8488 45.2343 14.7328C44.9714 14.6182 44.545 14.5399 43.9511 14.5041ZM42.9542 12.2505C42.5714 12.0571 42.2938 11.7599 42.1297 11.3619C41.9643 10.9653 41.882 10.3768 41.882 9.60078C41.882 8.54716 42.0651 7.7775 42.4313 7.29769C42.8015 6.81935 43.3846 6.57798 44.1812 6.57798C44.5474 6.57798 44.8612 6.63331 45.1237 6.74542C45.3866 6.85999 45.604 7.0338 45.7807 7.26979C45.9075 7.04212 46.071 6.87468 46.2669 6.76158C46.4608 6.6475 46.6933 6.59169 46.9621 6.59169H47.0679V7.84801C46.969 7.83822 46.8936 7.83185 46.8441 7.82647C46.7947 7.82206 46.7496 7.81863 46.7168 7.81863C46.5964 7.81863 46.4823 7.83381 46.381 7.86221C46.2777 7.89011 46.1871 7.93369 46.1014 7.99489C46.1508 8.19562 46.1895 8.41692 46.213 8.66662C46.239 8.91632 46.2497 9.18805 46.2497 9.47936C46.2497 10.4728 46.0735 11.213 45.72 11.7031C45.3631 12.1883 44.8289 12.4336 44.1077 12.4336C44.0284 12.4336 43.9658 12.4336 43.9207 12.4307C43.8776 12.4287 43.8365 12.4243 43.8003 12.4189C43.6886 12.484 43.5981 12.559 43.5398 12.6388C43.482 12.7254 43.4497 12.8096 43.4497 12.8983C43.4497 12.9849 43.4908 13.0583 43.5746 13.1186C43.6563 13.1803 43.7621 13.2165 43.8913 13.2307C44.0054 13.2459 44.1684 13.2635 44.38 13.2894C45.0581 13.3683 45.4953 13.4451 45.6887 13.5186C46.145 13.6909 46.4784 13.8956 46.6919 14.1394C46.9048 14.3817 47.0081 14.678 47.0081 15.0246C47.0081 15.6048 46.7457 16.0738 46.2135 16.4332C45.6862 16.7935 44.989 16.9742 44.1234 16.9742C43.3205 16.9742 42.6987 16.8537 42.259 16.6148C41.8247 16.3744 41.6049 16.0317 41.6049 15.5906C41.6049 15.313 41.7165 15.0687 41.9383 14.8601C42.1601 14.65 42.496 14.4757 42.9395 14.3323C42.6551 14.2574 42.4402 14.1467 42.2962 14.0023C42.1518 13.8549 42.0808 13.6708 42.0808 13.45C42.0808 13.2282 42.1518 13.0182 42.2962 12.818C42.4397 12.6177 42.6595 12.4287 42.9542 12.2505ZM47.7802 14.4586V6.69108H49.205V7.72316C49.4136 7.33882 49.6613 7.05975 49.9413 6.87713C50.2258 6.69549 50.5719 6.59708 50.9813 6.57798L50.9876 8.13736C50.8995 8.11484 50.7981 8.09575 50.6885 8.08497C50.5788 8.07225 50.4451 8.06686 50.2924 8.06686C49.9267 8.06686 49.6745 8.16086 49.5281 8.34985C49.3817 8.53786 49.3112 8.90653 49.3112 9.45194V14.4591H47.7802V14.4586ZM54.8408 14.4586L54.6836 13.6767C54.4702 13.9631 54.2249 14.181 53.958 14.324C53.6868 14.4713 53.4004 14.5443 53.1037 14.5443C52.6087 14.5443 52.2146 14.3817 51.9179 14.0522C51.6251 13.7271 51.4787 13.2841 51.4787 12.722C51.4787 11.9798 51.7264 11.3315 52.2302 10.7768C52.734 10.225 53.5409 9.71143 54.6538 9.24141V8.81742C54.6538 8.45707 54.5935 8.20003 54.4751 8.0365C54.3546 7.87396 54.1651 7.79219 53.9047 7.79219C53.6462 7.79219 53.4376 7.88424 53.2873 8.06441C53.1365 8.24605 53.0523 8.49673 53.0459 8.81742H51.5908C51.6363 8.11043 51.8728 7.5611 52.3056 7.16795C52.7384 6.7748 53.3216 6.57749 54.0555 6.57749C54.8153 6.57749 55.3603 6.78117 55.6917 7.19047C56.0256 7.59635 56.1911 8.26662 56.1911 9.19735V12.7656C56.1911 13.1225 56.2038 13.4402 56.2298 13.7183C56.2538 13.9974 56.2944 14.2427 56.3502 14.4581H54.8408V14.4586ZM54.6533 10.4571C54.0853 10.7185 53.6653 11.004 53.3984 11.3095C53.1316 11.616 52.9979 11.9646 52.9979 12.3489C52.9979 12.6172 53.0606 12.8317 53.1854 12.9908C53.3122 13.1519 53.4763 13.2312 53.6868 13.2312C53.8528 13.2312 54.0163 13.1807 54.1774 13.0774C54.3409 12.9736 54.4981 12.8165 54.6533 12.6094V10.4571ZM58.1686 14.4586V7.89011H57.2624V6.69059H58.1686V5.71041C58.1686 5.03671 58.293 4.56963 58.5432 4.30917C58.7924 4.04674 59.2403 3.91602 59.8837 3.91602H60.6871V5.08812H60.3493C60.0952 5.08812 59.9184 5.14051 59.8279 5.2492C59.7353 5.35789 59.6903 5.57479 59.6903 5.90037V6.69108H60.6416V7.8906H59.6903V14.4591H58.1686V14.4586ZM61.7589 3.99925H63.2722V5.46169H61.7589V3.99925ZM61.7589 6.69108H63.2722V14.4586H61.7589V6.69108ZM64.8262 12.7949H66.4967V14.4591H64.8262V12.7949ZM72.489 11.756V12.2084C72.489 12.9658 72.2843 13.5543 71.8755 13.9744C71.4667 14.394 70.8899 14.6021 70.1492 14.6021C69.402 14.6021 68.8405 14.3734 68.4679 13.9176C68.0977 13.4593 67.9107 12.7685 67.9107 11.8402V9.33982C67.9107 8.41203 68.0977 7.72071 68.4679 7.26244C68.84 6.80613 69.402 6.57749 70.1492 6.57749C70.9002 6.57749 71.4794 6.79096 71.8819 7.22132C72.2868 7.64727 72.489 8.25634 72.489 9.049V9.39466H71.0148V8.85806C71.0148 8.49232 70.9526 8.22451 70.8273 8.05707C70.7005 7.89011 70.5022 7.80688 70.2334 7.80688C69.9582 7.80688 69.7599 7.89011 69.6351 8.05707C69.5078 8.22451 69.4476 8.49281 69.4476 8.85806V12.3078C69.4476 12.674 69.5078 12.9443 69.6351 13.1161C69.7599 13.287 69.9577 13.3722 70.2334 13.3722C70.5027 13.3722 70.7005 13.287 70.8273 13.1161C70.9526 12.9443 71.0148 12.674 71.0148 12.3078V11.7555H72.489V11.756ZM78.4087 9.33982V11.8402C78.4087 12.7886 78.2198 13.4838 77.8428 13.9338C77.4643 14.3778 76.8787 14.6021 76.0929 14.6021C75.3008 14.6021 74.7152 14.3773 74.3362 13.9338C73.9597 13.4838 73.7703 12.7886 73.7703 11.8402V9.33982C73.7703 8.39881 73.9597 7.70064 74.3362 7.25167C74.7152 6.80222 75.3008 6.57798 76.0929 6.57798C76.8763 6.57798 77.4599 6.80565 77.8389 7.25608C78.2193 7.70798 78.4087 8.40224 78.4087 9.33982ZM76.8699 8.86148C76.8699 8.49281 76.8097 8.225 76.6824 8.05756C76.5581 7.8906 76.3617 7.80737 76.0929 7.80737C75.8197 7.80737 75.6214 7.8906 75.4946 8.05756C75.3698 8.225 75.3071 8.4933 75.3071 8.86148V12.3083C75.3071 12.6745 75.3698 12.9448 75.4946 13.1166C75.6214 13.2875 75.8197 13.3727 76.0929 13.3727C76.3617 13.3727 76.5581 13.2875 76.6824 13.1166C76.8097 12.9448 76.8699 12.6745 76.8699 12.3083V8.86148ZM79.9456 14.4586V6.69108H81.3836V7.64384C81.6783 7.29574 81.9603 7.03086 82.2271 6.8502C82.4945 6.66954 82.7461 6.57798 82.9787 6.57798C83.2867 6.57798 83.5383 6.66758 83.7405 6.84579C83.9427 7.02303 84.0896 7.29133 84.1777 7.64335C84.4661 7.30063 84.7481 7.03576 85.0257 6.85314C85.2989 6.66954 85.5555 6.57749 85.7856 6.57749C86.2527 6.57749 86.5822 6.75375 86.78 7.10283C86.9758 7.45486 87.0747 8.07273 87.0747 8.96479V14.4586H85.5555V8.908C85.5555 8.56332 85.5099 8.31851 85.4262 8.16821C85.342 8.02182 85.2025 7.94838 85.0022 7.94838C84.8925 7.94838 84.7741 7.99293 84.6492 8.08497C84.5263 8.17702 84.4039 8.30481 84.283 8.46931V14.4586H82.7461V8.908C82.7461 8.56332 82.703 8.31851 82.6188 8.16821C82.5327 8.02182 82.3951 7.94838 82.2012 7.94838C82.0852 7.94838 81.9667 7.99293 81.8394 8.08497C81.717 8.17702 81.5941 8.30481 81.4737 8.46931V14.4586H79.9456Z" fill="#EC008B"/>
</g>
<defs>
<clipPath id="clip0_0_1977">
<rect width="86.1699" height="23.5009" fill="white" transform="translate(0.902344)"/>
</clipPath>
</defs>
</svg>
